<svg width="32" height="32" viewBox="0 0 32 32" fill="none" xmlns="http://www.w3.org/2000/svg">
<g clip-path="url(#clip0_1_279)">
<path d="M26.6667 22.6667H29.3334V25.3334H2.66669L2.66669 22.6667H5.33335L5.33335 13.3334C5.33335 10.5044 6.45716 7.79127 8.45755 5.79088C10.4579 3.79049 13.171 2.66669 16 2.66669C18.829 2.66669 21.5421 3.79049 23.5425 5.79088C25.5429 7.79127 26.6667 10.5044 26.6667 13.3334V22.6667ZM24 22.6667V13.3334C24 11.2116 23.1572 9.17679 21.6569 7.6765C20.1566 6.17621 18.1218 5.33335 16 5.33335C13.8783 5.33335 11.8435 6.17621 10.3432 7.6765C8.84288 9.17679 8.00002 11.2116 8.00002 13.3334V22.6667H24ZM12 28H20V30.6667H12V28Z" fill="black"/>
</g>
<defs>
<clipPath id="clip0_1_279">
<rect width="32" height="32" fill="white"/>
</clipPath>
</defs>
</svg>
