<svg width="18" height="18" viewBox="0 0 18 18" fill="none" xmlns="http://www.w3.org/2000/svg">
<path d="M12.75 6.9L16.66 4.16303C16.8296 4.04426 17.0635 4.08553 17.1822 4.2552C17.2263 4.31823 17.25 4.39331 17.25 4.47025V13.5298C17.25 13.7368 17.0821 13.9048 16.875 13.9048C16.798 13.9048 16.723 13.8811 16.66 13.837L12.75 11.1V14.25C12.75 14.6642 12.4142 15 12 15H1.5C1.08579 15 0.75 14.6642 0.75 14.25V3.75C0.75 3.33579 1.08579 3 1.5 3H12C12.4142 3 12.75 3.33579 12.75 3.75V6.9ZM12.75 9.26902L15.75 11.369V6.63098L12.75 8.73098V9.26902ZM2.25 4.5V13.5H11.25V4.5H2.25ZM3.75 6H5.25V7.5H3.75V6Z" fill="black"/>
</svg>
