<svg width="32" height="32" viewBox="0 0 32 32" fill="none" xmlns="http://www.w3.org/2000/svg">
<g clip-path="url(#clip0_1_633)">
<path d="M26.6666 22.6666H29.3333V25.3333H2.66663L2.66663 22.6666H5.33329L5.33329 13.3333C5.33329 10.5043 6.4571 7.79121 8.45749 5.79082C10.4579 3.79043 13.171 2.66663 16 2.66663C18.8289 2.66663 21.542 3.79043 23.5424 5.79082C25.5428 7.79121 26.6666 10.5043 26.6666 13.3333V22.6666ZM24 22.6666V13.3333C24 11.2116 23.1571 9.17673 21.6568 7.67644C20.1565 6.17615 18.1217 5.33329 16 5.33329C13.8782 5.33329 11.8434 6.17615 10.3431 7.67644C8.84281 9.17673 7.99996 11.2116 7.99996 13.3333V22.6666H24ZM12 28H20V30.6666H12V28Z" fill="black"/>
<circle cx="21.8333" cy="10.1666" r="7.5" fill="#F30000"/>
</g>
<defs>
<clipPath id="clip0_1_633">
<rect width="32" height="32" fill="white"/>
</clipPath>
</defs>
</svg>
